<?xml version="1.0" encoding="UTF-8"?>
<svg width="73px" height="35px" viewBox="0 0 73 35" version="1.1" xmlns="http://www.w3.org/2000/svg" xmlns:xlink="http://www.w3.org/1999/xlink">
    <title>Logo-hugo4Business</title>
    <g id="Movil" stroke="none" stroke-width="1" fill="none" fill-rule="evenodd">
        <g id="Menú-00" transform="translate(-73.000000, -48.000000)" fill="#2D0668" fill-rule="nonzero">
            <g id="Logo-hugo4Business/Purple" transform="translate(73.000000, 48.000000)">
                <path d="M6.71809091,20.9045455 L6.71809091,12.6859091 C6.71809091,11.34 7.60581818,10.5668182 8.57945455,10.5668182 C9.55309091,10.5668182 10.3549091,11.34 10.3549091,12.6859091 L10.3549091,20.9045455 L16.8553636,20.9045455 L16.8553636,10.5954545 C16.8553636,7.07318182 14.7935455,4.89681818 11.5003636,4.89681818 C9.29536364,4.89681818 7.72036364,6.07090909 6.71809091,7.35954545 L6.71809091,0 L0.217636364,0 L0.217636364,20.9045455 L6.71809091,20.9045455 Z M23.5955645,21.2768182 C25.8005645,21.2768182 27.3755645,20.1027273 28.3778372,18.8140909 L28.3778372,20.9045455 L34.8782918,20.9045455 L34.8782918,5.26909091 L28.3778372,5.26909091 L28.3778372,13.4877273 C28.3778372,14.8336364 27.4901099,15.6068182 26.5164736,15.6068182 C25.5428372,15.6068182 24.741019,14.8336364 24.741019,13.4877273 L24.741019,5.26909091 L18.2405645,5.26909091 L18.2405645,15.5781818 C18.2405645,19.1004545 20.3023827,21.2768182 23.5955645,21.2768182 Z M44.8257653,25.5436364 C48.3194017,25.5436364 50.467129,24.6559091 51.8703108,23.2527273 C53.302129,21.8209091 53.9034926,19.845 53.9034926,16.9527273 L53.9034926,5.26909091 L47.4030381,5.26909091 L47.4030381,6.93 C46.2575835,5.75590909 44.9116744,4.89681818 42.6207653,4.89681818 C39.0125835,4.89681818 36.0344017,7.78909091 36.0344017,12.1704545 L36.0344017,12.2277273 C36.0344017,16.5518182 38.9553108,19.4154545 42.9930381,19.4154545 C45.1694017,19.4154545 46.6298562,18.27 47.5175835,17.2677273 L47.5175835,17.7259091 C47.5175835,19.9022727 46.2289471,21.1622727 43.7948562,21.1622727 C41.647129,21.1622727 39.9003108,20.5895455 38.1534926,19.6731818 L36.1489471,23.5963636 C38.6689471,24.8563636 41.3607653,25.5436364 44.8257653,25.5436364 Z M44.9403108,14.6618182 C43.3653108,14.6618182 42.3344017,13.6022727 42.3344017,12.2563636 L42.3344017,12.1990909 C42.3344017,10.8245455 43.3366744,9.70772727 44.9403108,9.70772727 C46.5153108,9.70772727 47.5462199,10.7959091 47.5462199,12.1418182 L47.5462199,12.1990909 C47.5462199,13.5736364 46.5439471,14.6618182 44.9403108,14.6618182 Z M63.7936934,21.2768182 C68.9482389,21.2768182 72.6136934,17.4968182 72.6136934,13.0868182 L72.6136934,13.0295455 C72.6136934,8.61954545 68.9768753,4.89681818 63.8509662,4.89681818 C58.6964207,4.89681818 55.0309662,8.67681818 55.0309662,13.0868182 L55.0309662,13.1440909 C55.0309662,17.5540909 58.6677844,21.2768182 63.7936934,21.2768182 Z M63.8509662,15.8645455 C62.419148,15.8645455 61.2736934,14.6331818 61.2736934,13.0868182 L61.2736934,13.0295455 C61.2736934,11.5404545 62.3332389,10.3090909 63.7936934,10.3090909 C65.2255116,10.3090909 66.3709662,11.5404545 66.3709662,13.0868182 L66.3709662,13.1440909 C66.3709662,14.6331818 65.3114207,15.8645455 63.8509662,15.8645455 Z" id="hugo"></path>
                <path d="M0.603272727,34.9045455 L0.603272727,32.5754545 L3.49745455,32.5754545 L3.49745455,32.0256364 L0.603272727,32.0256364 L0.603272727,30.1165455 L3.84109091,30.1165455 L3.84109091,29.5590909 L1.35649068e-14,29.5590909 L1.35649068e-14,34.9045455 L0.603272727,34.9045455 Z M8.64945455,34.9961818 C10.276,34.9961818 11.3832727,33.7056364 11.3832727,32.2241818 C11.3832727,30.7427273 10.2912727,29.4674545 8.66472727,29.4674545 C7.03818182,29.4674545 5.93090909,30.758 5.93090909,32.2394545 C5.93090909,33.7209091 7.02290909,34.9961818 8.64945455,34.9961818 Z M8.66472727,34.4387273 C7.44290909,34.4387273 6.55709091,33.446 6.55709091,32.2241818 C6.55709091,31.0023636 7.42763636,30.0249091 8.64945455,30.0249091 C9.87127273,30.0249091 10.7570909,31.0176364 10.7570909,32.2394545 C10.7570909,33.4612727 9.88654545,34.4387273 8.66472727,34.4387273 Z M14.5345455,34.9045455 L14.5345455,32.8274545 L16.0618182,32.8274545 L17.612,34.9045455 L18.3527273,34.9045455 L16.7109091,32.7205455 C17.5509091,32.5678182 18.1618182,32.0485455 18.1618182,31.1550909 C18.1618182,30.1929091 17.4058182,29.5590909 16.2298182,29.5590909 L13.9312727,29.5590909 L13.9312727,34.9045455 L14.5345455,34.9045455 Z M16.1763636,32.2852727 L14.5345455,32.2852727 L14.5345455,30.1165455 L16.184,30.1165455 C17.0469091,30.1165455 17.5509091,30.5136364 17.5509091,31.178 C17.5509091,31.8729091 16.9781818,32.2852727 16.1763636,32.2852727 Z M26.6636364,34.9045455 C27.832,34.9045455 28.6032727,34.3623636 28.6032727,33.4383636 C28.6032727,32.6976364 28.0916364,32.3310909 27.4578182,32.1401818 C27.8778182,31.9569091 28.3054545,31.598 28.3054545,30.8954545 C28.3054545,30.0783636 27.6181818,29.5590909 26.5643636,29.5590909 L24.2887273,29.5590909 L24.2887273,34.9045455 L26.6636364,34.9045455 Z M26.4650909,31.9416364 L24.8843636,31.9416364 L24.8843636,30.1012727 L26.5109091,30.1012727 C27.2745455,30.1012727 27.6945455,30.4449091 27.6945455,30.9794545 C27.6945455,31.6132727 27.1905455,31.9416364 26.4650909,31.9416364 Z M26.6789091,34.3623636 L24.8843636,34.3623636 L24.8843636,32.4761818 L26.572,32.4761818 C27.5036364,32.4761818 27.9923636,32.8121818 27.9923636,33.4001818 C27.9923636,34.0034545 27.4883636,34.3623636 26.6789091,34.3623636 Z M33.2130909,34.9885455 C34.5494545,34.9885455 35.4429091,34.1790909 35.4429091,32.6212727 L35.4429091,29.5590909 L34.8396364,29.5590909 L34.8396364,32.6670909 C34.8396364,33.8354545 34.2134545,34.4310909 33.2283636,34.4310909 C32.2050909,34.4310909 31.5941818,33.782 31.5941818,32.6289091 L31.5941818,29.5590909 L30.9909091,29.5590909 L30.9909091,32.6670909 C30.9909091,34.1790909 31.892,34.9885455 33.2130909,34.9885455 Z M39.9763636,34.9809091 C41.0378182,34.9809091 41.8014545,34.3852727 41.8014545,33.4612727 C41.8014545,32.6365455 41.2516364,32.2012727 40.0603636,31.9416364 C38.8843636,31.6896364 38.6094545,31.4070909 38.6094545,30.8954545 C38.6094545,30.4067273 39.0523636,30.0249091 39.7472727,30.0249091 C40.2970909,30.0249091 40.7934545,30.2005455 41.2898182,30.6052727 L41.6410909,30.1394545 C41.0989091,29.7041818 40.5414545,29.4827273 39.7625455,29.4827273 C38.7469091,29.4827273 38.0061818,30.0936364 38.0061818,30.9489091 C38.0061818,31.8347273 38.5712727,32.2318182 39.8007273,32.4990909 C40.9232727,32.7358182 41.1905455,33.0183636 41.1905455,33.5223636 C41.1905455,34.0645455 40.7170909,34.4387273 39.9992727,34.4387273 C39.2585455,34.4387273 38.724,34.1867273 38.1665455,33.6827273 L37.7923636,34.1256364 C38.4338182,34.6983636 39.1287273,34.9809091 39.9763636,34.9809091 Z M44.9603636,34.9045455 L44.9603636,29.5590909 L44.3570909,29.5590909 L44.3570909,34.9045455 L44.9603636,34.9045455 Z M48.3865455,34.9045455 L48.3865455,30.5212727 L51.8381818,34.9045455 L52.3192727,34.9045455 L52.3192727,29.5590909 L51.7312727,29.5590909 L51.7312727,33.8430909 L48.3636364,29.5590909 L47.7985455,29.5590909 L47.7985455,34.9045455 L48.3865455,34.9045455 Z M59.0061818,34.9045455 L59.0061818,34.3547273 L55.7072727,34.3547273 L55.7072727,32.4838182 L58.6243636,32.4838182 L58.6243636,31.934 L55.7072727,31.934 L55.7072727,30.1089091 L58.968,30.1089091 L58.968,29.5590909 L55.104,29.5590909 L55.104,34.9045455 L59.0061818,34.9045455 Z M63.3258182,34.9809091 C64.3872727,34.9809091 65.1509091,34.3852727 65.1509091,33.4612727 C65.1509091,32.6365455 64.6010909,32.2012727 63.4098182,31.9416364 C62.2338182,31.6896364 61.9589091,31.4070909 61.9589091,30.8954545 C61.9589091,30.4067273 62.4018182,30.0249091 63.0967273,30.0249091 C63.6465455,30.0249091 64.1429091,30.2005455 64.6392727,30.6052727 L64.9905455,30.1394545 C64.4483636,29.7041818 63.8909091,29.4827273 63.112,29.4827273 C62.0963636,29.4827273 61.3556364,30.0936364 61.3556364,30.9489091 C61.3556364,31.8347273 61.9207273,32.2318182 63.1501818,32.4990909 C64.2727273,32.7358182 64.54,33.0183636 64.54,33.5223636 C64.54,34.0645455 64.0665455,34.4387273 63.3487273,34.4387273 C62.608,34.4387273 62.0734545,34.1867273 61.516,33.6827273 L61.1418182,34.1256364 C61.7832727,34.6983636 62.4781818,34.9809091 63.3258182,34.9809091 Z M69.4094545,34.9809091 C70.4709091,34.9809091 71.2345455,34.3852727 71.2345455,33.4612727 C71.2345455,32.6365455 70.6847273,32.2012727 69.4934545,31.9416364 C68.3174545,31.6896364 68.0425455,31.4070909 68.0425455,30.8954545 C68.0425455,30.4067273 68.4854545,30.0249091 69.1803636,30.0249091 C69.7301818,30.0249091 70.2265455,30.2005455 70.7229091,30.6052727 L71.0741818,30.1394545 C70.532,29.7041818 69.9745455,29.4827273 69.1956364,29.4827273 C68.18,29.4827273 67.4392727,30.0936364 67.4392727,30.9489091 C67.4392727,31.8347273 68.0043636,32.2318182 69.2338182,32.4990909 C70.3563636,32.7358182 70.6236364,33.0183636 70.6236364,33.5223636 C70.6236364,34.0645455 70.1501818,34.4387273 69.4323636,34.4387273 C68.6916364,34.4387273 68.1570909,34.1867273 67.5996364,33.6827273 L67.2254545,34.1256364 C67.8669091,34.6983636 68.5618182,34.9809091 69.4094545,34.9809091 Z" id="FORBUSINESS"></path>
            </g>
        </g>
    </g>
</svg>